<svg width="14" height="12" viewBox="0 0 14 12" fill="none" xmlns="http://www.w3.org/2000/svg">
<path d="M13.5114 4.27174C13.3653 4.11781 13.1657 4.0177 12.9482 3.98927V3.98885L9.55085 3.54829L8.20645 0.532645C8.01014 0.0912375 7.46983 -0.1172 6.99964 0.0670818C6.77549 0.154941 6.59726 0.322224 6.5037 0.532645L5.1593 3.54829L1.76198 3.98885C1.25582 4.05499 0.902606 4.49383 0.973061 4.96899C1.00334 5.17318 1.10999 5.3606 1.27395 5.49775L3.83359 7.64046L3.30766 11.0028C3.25069 11.3442 3.41773 11.6844 3.7313 11.8654C4.04046 12.051 4.43813 12.0441 4.73972 11.8478L7.35505 10.1782L9.97038 11.8496C10.3924 12.1184 10.9667 12.0153 11.2531 11.6191C11.3833 11.4391 11.4366 11.2197 11.4025 11.0045L10.8766 7.64086L13.4362 5.49815C13.8177 5.17901 13.8514 4.6299 13.5114 4.27174ZM10.085 7.15661C9.97046 7.25266 9.91506 7.39629 9.9375 7.53889L10.4853 11.1386L7.61298 9.30534C7.45814 9.20656 7.25471 9.20656 7.09987 9.30534L4.21064 11.1275L4.77259 7.53718C4.79442 7.39516 4.73905 7.25231 4.62513 7.15664L1.88609 4.83907L5.5418 4.36552C5.70186 4.34481 5.8383 4.2462 5.9006 4.10626L7.3605 0.857065C7.36216 0.858973 7.36339 0.861158 7.36417 0.863493L8.80901 4.10455C8.87131 4.24449 9.00778 4.3431 9.16781 4.36381L12.8281 4.85835L10.085 7.15661Z" fill="#FEB300"/>
</svg>
